<svg width="54" height="54" viewBox="0 0 54 54" fill="none" xmlns="http://www.w3.org/2000/svg">
<path fill-rule="evenodd" clip-rule="evenodd" d="M40.1619 13.8227C40.8227 14.4835 40.8227 15.5515 40.1619 16.2046L29.3665 27L40.1542 37.7877C40.8227 38.4331 40.8458 39.5011 40.1927 40.1773C39.5472 40.8458 38.4792 40.8688 37.8031 40.2157L37.7647 40.1773L26.9846 29.3896L16.2277 40.1466C15.5746 40.8073 14.5065 40.8073 13.8458 40.1542L13.8381 40.1466C13.1773 39.4858 13.1773 38.4178 13.8381 37.757L24.595 27L13.8381 16.243C13.1542 15.6053 13.1158 14.5373 13.7536 13.8611C14.3913 13.1773 15.4593 13.1389 16.1355 13.7766L16.22 13.8611L26.9769 24.6181L37.7647 13.8304C38.4331 13.1619 39.5011 13.1619 40.1619 13.8227C40.1542 13.8227 40.1542 13.8227 40.1619 13.8227ZM26.9923 50.6269C42.8896 50.6269 50.6269 42.8973 50.6269 27.0077C50.6269 11.1104 42.8973 3.37308 27 3.37308C11.1027 3.37308 3.38076 11.1027 3.38076 27.0077C3.37308 42.8973 11.1027 50.6269 26.9923 50.6269ZM26.9923 0C44.0498 0 54 8.62094 54 27.0077C54 45.4021 44.0498 54 26.9923 54C9.93483 54 0 45.4021 0 27.0077C0 8.62094 9.93483 0 26.9923 0Z" fill="#F24C49"/>
</svg>
