<svg width="55" height="40" viewBox="0 0 55 40" fill="none" xmlns="http://www.w3.org/2000/svg">
<mask id="mask0" style="mask-type:alpha" maskUnits="userSpaceOnUse" x="0" y="0" width="55" height="40">
<path fill-rule="evenodd" clip-rule="evenodd" d="M0.146301 0H54.1463V40H0.146301V0Z" fill="white"/>
</mask>
<g mask="url(#mask0)">
<path fill-rule="evenodd" clip-rule="evenodd" d="M10.2981 4.633C7.79593 4.67224 3.17717 5.91095 1.06771 14.5578C0.148935 18.3257 -0.206491 22.2523 0.579889 26.9271C1.30585 31.239 2.59071 34.9605 3.45706 37.0107C3.75562 37.7179 4.21856 38.4546 4.57577 38.9085C5.60384 40.2123 7.31521 40.1294 8.03406 39.7735C8.81778 39.3865 9.71878 38.451 9.39179 36.316C9.23452 35.2851 8.78046 33.7762 8.52455 32.937C7.73906 30.3632 6.69411 27.258 6.60347 25.0454C6.48174 22.0855 7.64398 21.6985 8.41615 21.5282C9.71434 21.2419 10.8028 22.6723 11.8362 24.4649C13.0705 26.6052 15.1861 30.398 16.9108 33.2937C18.4685 35.9085 21.343 38.7078 25.9582 38.5161C30.664 38.3199 34.133 36.5185 35.9199 30.8457C37.2563 26.6007 38.1689 23.4304 39.635 20.1824C41.3215 16.4467 43.5713 14.4482 45.4658 15.0582C47.2242 15.6253 47.6632 17.3501 47.6845 19.8864C47.7032 22.1301 47.4446 24.604 47.2438 26.4206C47.17 27.0796 47.0385 28.4066 47.0927 29.1433C47.1985 30.5906 47.8231 32.0372 49.4474 32.2681C51.1775 32.5143 52.5663 31.1266 53.1208 29.4491C53.3393 28.7874 53.5251 27.7761 53.6264 27.0582C54.1346 23.4331 54.267 20.9958 54.0378 17.2859C53.7694 12.949 52.9235 8.99301 51.4485 5.57028C50.0365 2.29648 47.7689 0.198069 44.8607 0.0134658C41.6423 -0.191648 37.9485 1.95135 36.0105 6.10982C34.2245 9.94367 32.7957 13.8783 31.9294 15.8866C31.0497 17.9235 29.7577 19.1792 27.7718 19.3887C25.3424 19.6447 23.2499 17.8753 21.7171 15.3524C20.3807 13.1533 17.7328 8.96537 16.3155 7.5581C14.9835 6.23645 13.4641 4.58216 10.2981 4.633Z" fill="#019DF4"/>
</g>
</svg>
