<svg width="24" height="24" viewBox="0 0 24 24" fill="none" xmlns="http://www.w3.org/2000/svg">
<mask id="mask0" style="mask-type:alpha" maskUnits="userSpaceOnUse" x="0" y="0" width="24" height="24">
<path fill-rule="evenodd" clip-rule="evenodd" d="M0 0H24V24H0V0Z" fill="white"/>
</mask>
<g mask="url(#mask0)">
<path fill-rule="evenodd" clip-rule="evenodd" d="M21.5128 21.4605C21.3348 21.6468 21.0573 21.8761 20.688 22.1424C20.6734 22.1529 20.6604 22.1623 20.6484 22.1712C19.6423 22.8555 17.879 22.7745 15.8069 21.948C13.3134 20.9535 10.5579 18.9905 7.83778 16.2712L7.79143 16.2233C7.78678 16.2184 7.78183 16.2136 7.77703 16.2088L7.72903 16.1624C5.00965 13.4423 3.04657 10.6866 2.05206 8.1931C1.2257 6.12113 1.14455 4.35786 1.82871 3.35194C1.83786 3.33964 1.84731 3.32629 1.85811 3.31129C2.12436 2.94214 2.35356 2.66494 2.53957 2.48718C4.09959 0.997066 5.3974 0.993466 6.87912 2.47518C7.19472 2.79079 7.44673 3.10969 7.62808 3.4229C7.63168 3.42935 7.63543 3.4358 7.63948 3.44195C7.99288 4.0094 8.11933 4.55241 8.02618 5.10202C7.92583 5.69362 7.56313 6.30533 6.94827 6.92019C6.77067 7.09779 6.66672 7.19229 6.40136 7.40139C6.37301 7.42375 6.34646 7.44835 6.32201 7.47505C6.05261 7.7671 5.77571 8.28911 5.98541 9.11712C6.10406 9.58587 6.36626 10.1119 6.78702 10.7251C7.58773 11.8923 8.87609 13.2231 9.7758 14.1228L9.8775 14.2244C10.7769 15.1239 12.1077 16.4123 13.2749 17.2132C13.8881 17.6338 14.4142 17.896 14.8829 18.0146C15.7111 18.2245 16.2329 17.9474 16.5251 17.678C16.5517 17.6536 16.5761 17.627 16.5985 17.5987C16.8082 17.3329 16.9025 17.2291 17.0797 17.0519C17.6947 16.4369 18.3066 16.0742 18.898 15.9739C19.4476 15.8808 19.9906 16.0073 20.5579 16.3606C20.5642 16.3646 20.5707 16.3684 20.5771 16.3721C20.8905 16.5535 21.2092 16.8053 21.5248 17.1209C23.0066 18.6026 23.003 19.9004 21.5128 21.4605ZM23.9994 19.1903C23.9801 18.1561 23.4729 17.1343 22.4922 16.1536C22.0954 15.7568 21.6849 15.434 21.2718 15.1935C20.4231 14.6675 19.5475 14.4761 18.6694 14.6252C17.7923 14.7738 16.9321 15.2648 16.1125 16.0846C15.9017 16.2952 15.773 16.439 15.5734 16.6897C15.4303 16.7698 14.977 16.7218 14.0488 16.085C12.975 15.3483 11.706 14.1183 10.8449 13.2572L10.7429 13.1552C9.8817 12.2942 8.65169 11.0251 7.91503 9.95128C7.27842 9.02322 7.23042 8.56991 7.31037 8.42666C7.56058 8.22746 7.70443 8.0986 7.91548 7.8877C8.73524 7.06794 9.2262 6.20768 9.375 5.33062C9.5238 4.45251 9.33255 3.5768 8.80649 2.72809C8.56604 2.31498 8.24308 1.90443 7.84648 1.50782C6.86577 0.52711 5.84396 0.0199538 4.80969 0.000603586C3.73778 -0.0199467 2.65582 0.48436 1.59471 1.49792C1.2233 1.85283 0.865847 2.34843 0.748546 2.51133C0.742245 2.51988 0.737145 2.52708 0.733245 2.53233C0.725595 2.54223 0.718095 2.55244 0.710895 2.56294C-0.260666 3.97055 -0.235616 6.15008 0.781396 8.69981C1.84461 11.3655 3.91373 14.2817 6.76512 17.1331C6.76692 17.1349 6.76872 17.1367 6.77067 17.1385L6.86127 17.2292C6.86322 17.2312 6.86517 17.233 6.86697 17.2349C9.7185 20.0863 12.6345 22.1556 15.3002 23.2186C16.6057 23.7393 17.8141 24 18.8716 24C19.8793 24 20.7502 23.7631 21.4372 23.289C21.4474 23.2821 21.4575 23.2746 21.4674 23.2669C21.4725 23.2632 21.4794 23.2582 21.4879 23.2521C21.6508 23.1348 22.1467 22.7773 22.5021 22.4055V22.4053C23.5157 21.3442 24.0195 20.2626 23.9994 19.1903Z" fill="#019DF4"/>
</g>
</svg>
