<svg width="57" height="56" viewBox="0 0 57 56" fill="none" xmlns="http://www.w3.org/2000/svg">
<path fill-rule="evenodd" clip-rule="evenodd" d="M28.492 3.10358C11.9747 3.10358 3.596 11.481 3.596 28.012C3.596 44.527 11.9747 52.9038 28.492 52.9038C45.018 52.9038 53.404 44.527 53.404 28.012C53.404 11.489 45.018 3.10358 28.492 3.10358ZM28.492 56C19.5947 56 12.6767 53.6783 7.92933 49.0983C2.99733 44.351 0.5 37.2587 0.5 28.012C0.5 18.7653 2.99733 11.6643 7.92933 6.90901C12.6767 2.32967 19.6033 0 28.492 0C37.3893 0 44.3073 2.32167 49.0633 6.90101C54.0027 11.6563 56.5 18.7567 56.5 28.004C56.5 37.2507 53.994 44.3437 49.0633 49.0983C44.3073 53.6783 37.3893 56 28.492 56Z" fill="#019DF4"/>
<path fill-rule="evenodd" clip-rule="evenodd" d="M23.603 41.0826C23.1631 41.0826 22.7462 40.8872 22.4711 40.5434L15.0682 31.2807C14.5731 30.6631 14.6755 29.7552 15.2966 29.2624C15.9171 28.7696 16.8291 28.8709 17.3242 29.4892L23.5636 37.2964L38.6287 17.2226C39.108 16.5886 40.0115 16.456 40.6484 16.9331C41.2853 17.4102 41.4185 18.3102 40.9392 18.9435L24.7658 40.5035C24.4986 40.8636 24.0823 41.0748 23.6345 41.0826H23.603Z" fill="#019DF4"/>
</svg>
